<?xml version="1.0" encoding="UTF-8"?>
<svg id="Livello_2" data-name="Livello 2" xmlns="http://www.w3.org/2000/svg" viewBox="0 0 707 259.61">
  <defs>
    <style>
      .cls-1 {
        fill: #2e6fb6;
      }
    </style>
  </defs>
  <g id="Livello_7" data-name="Livello 7">
    <path class="cls-1" d="m93.92,141.04c0,11.93-3.13,20.66-9.56,26.7-6.39,6-14.57,8.96-24.99,9.07-10.42-.11-18.6-3.07-24.99-9.07-6.43-6.04-9.56-14.77-9.56-26.7v-54.59H0v54.59c0,12.3,2.52,23.06,7.5,32,5.02,9.02,12.07,15.99,20.96,20.71,8.78,4.66,18.78,7.02,29.74,7.02.39,0,.78-.02,1.17-.03.39,0,.78.03,1.18.03,10.96,0,20.97-2.36,29.74-7.02,1.25-.66,2.45-1.38,3.62-2.13v6.55c-.15,2.04-.43,4.02-.81,5.95-2.78,18.39-18.65,32.48-37.81,32.48-5.4,0-10.53-1.12-15.19-3.14-.23-.08-.47-.15-.7-.23-.88-.43-1.76-.91-2.64-1.41-.59-.33-1.17-.67-1.74-1.02-.06-.04-.12-.07-.18-.11-2.67-1.65-5.13-3.62-7.39-5.9l-21.56,12.4c4.64,5.53,10.06,10.13,16.2,13.7,7.58,4.42,15.75,7.1,24.35,8,2.37.38,4.89.59,7.61.59,12.04,0,23.78-3.34,33.38-9,9.61-5.65,17.28-13.51,22.77-23.35,4.64-8.28,7.35-17.49,8.06-27.39h.03v-.5l.47-14.63v-98.15h-24.83v54.59h0Z"/>
    <path class="cls-1" d="m251.98,71.01c-13.27,0-26.14,4.46-36.54,12.61v-.4l-2.34,2.01c-15.1,12.95-23.42,31.91-23.42,53.41v120.99h25.76v-82.61c10.41,8.15,23.27,12.61,36.54,12.61,32.7,0,59.3-26.6,59.3-59.3s-26.6-59.3-59.3-59.3Zm0,93.78c-19.01,0-34.48-15.47-34.48-34.48s15.47-34.48,34.48-34.48,34.48,15.47,34.48,34.48c0,19.01-15.47,34.48-34.48,34.48Z"/>
    <rect class="cls-1" x="144.51" y="82.96" width="26.11" height="103.54"/>
    <path class="cls-1" d="m157.57,33.78c-9.54,0-16.47,6.93-16.47,16.47s6.77,16.47,16.47,16.47,16.47-6.77,16.47-16.47c0-9.55-6.93-16.47-16.47-16.47Z"/>
    <path class="cls-1" d="m681.24,0v82.61c-10.41-8.15-23.27-12.61-36.54-12.61-32.7,0-59.3,26.6-59.3,59.3s26.6,59.3,59.3,59.3c13.27,0,26.13-4.46,36.54-12.61v.4l2.34-2.01c15.1-12.95,23.42-31.91,23.42-53.4V0h-25.76Zm-36.54,94.83c19.01,0,34.48,15.47,34.48,34.48s-15.47,34.48-34.48,34.48-34.48-15.47-34.48-34.48,15.47-34.48,34.48-34.48Z"/>
    <path class="cls-1" d="m569.88,102.27s-6.58-13.16-18.82-21.48c-1.8-1.22-4.34-2.6-6.26-3.69-8.58-4.83-18.26-7.15-28.79-6.92-10.53.24-20.13,3.03-28.55,8.31-.88.55-1.78,1.16-2.75,1.86v-.02l-.78.59c-1.5,1.12-2.98,2.4-4.43,3.78l-.03-.04-1.1,1.16c-.39.4-.77.81-1.15,1.21l-24.17,25.27s-25.61,27.51-34.62,36.21c-6.13,5.92-12.1,9.85-17.54,12.8-3.64,1.96-8.35,2.94-14.83,3.08-6.74.15-12.86-1.11-18.2-3.76-5.19-2.57-9.42-6.35-12.53-11.23-2.68-4.19-4.22-8.16-4.7-12.12-1.11-9.22-.73-12.62.02-17.12.63-3.85,1.96-7.58,3.92-11.05,2.61-4.62,6.18-8.28,10.61-10.88,4.47-2.62,9.66-4.02,15.43-4.14,5.75-.13,10.98,1.05,15.54,3.51,1.24.67,2.45,1.44,3.59,2.28l-38.77,34.84.34.37,15.32,17.07.68.74,37.89-34.05c.12-.08.24-.18.35-.28l11.39-10.25h0l.43-.39,2.77-2.49.02-.02.04-.03,1.9-1.71-1.39-3.03c-.05-.11-.1-.22-.16-.32v.03s-.32-.67-.32-.67c-2.74-5.28-5.88-9.29-8.01-11.7-3.85-4.26-8.31-7.85-13.37-10.7-8.57-4.83-18.26-7.15-28.78-6.92-10.53.24-20.14,3.03-28.55,8.31-8.43,5.29-15.06,12.6-19.7,21.71-4.58,9.01-6.78,19.2-6.54,30.24.25,11.26,3.07,21.42,8.39,30.2,5.35,8.83,12.7,15.76,21.89,20.61,9.11,4.82,19.48,7.14,30.84,6.88,9.26-.21,19.48-2.75,26.67-6.61,17.28-9.29,40.73-35.99,40.74-36l33.51-34.83s9.47-9.44,13.87-12.5c3.85-2.68,8.86-4.33,15.34-4.48,5.75-.13,10.98,1.05,15.55,3.51,1.23.67,2.42,1.43,3.55,2.26l-38.65,34.73.02.02-.11.1,16.34,18.19,56.64-50.22"/>
    <path class="cls-1" d="m573.5,111.82l-19.12,17.08s.12,1.34.12,1.41c.55,18.09-12.43,33.45-29.62,36.82-.09.02-.17.04-.26.05-.25.05-.51.09-.76.14-2.14.38-4.35.6-6.6.6-19.42,0-35.36-14.87-37.06-33.85l-15.8,18.68.1.27c.18.52.37,1.05.58,1.6,3.82,10.35,11.1,19.12,21.06,25.33,9.64,6.02,21.34,9.19,32.97,8.93,31.84-.71,57.86-27.33,57.15-59.18-.13-5.91-.79-11.06-2.75-17.88Z"/>
  </g>
</svg>