<?xml version="1.0" encoding="utf-8"?>
<!-- Generator: Adobe Illustrator 16.0.3, SVG Export Plug-In . SVG Version: 6.00 Build 0)  -->
<!DOCTYPE svg PUBLIC "-//W3C//DTD SVG 1.1//EN" "http://www.w3.org/Graphics/SVG/1.1/DTD/svg11.dtd">
<svg version="1.1" xmlns="http://www.w3.org/2000/svg" xmlns:xlink="http://www.w3.org/1999/xlink" x="0px" y="0px" width="80px"
	 height="80px" viewBox="0 0 80 80" enable-background="new 0 0 80 80" xml:space="preserve">
<g id="Livello_5">
	<circle fill="#A34499" cx="40" cy="39.999" r="38"/>
</g>
<g id="Layer_1">
	<g id="Capa_1">
	</g>
	<g id="Livello_1">
		<g>
			<g id="Path_239">
				<path fill="#FFFFFF" d="M65.813,48.458l-25.34-25.34l-7.175-1.246L21.672,33.498l1.247,7.176l25.34,25.34L65.813,48.458
					L65.813,48.458z M41.521,21.68l26.146,26.146l0.011,0.01c0.344,0.344,0.344,0.9,0,1.244l0,0L48.891,67.867l-0.01,0.011
					c-0.345,0.344-0.9,0.344-1.244,0l0,0L21.488,41.73c-0.133-0.13-0.222-0.297-0.253-0.48l0.001-0.002l-1.364-7.853
					c-0.067-0.296,0.021-0.605,0.234-0.819l0,0L32.363,20.32c0.203-0.211,0.497-0.308,0.784-0.258v0.002l7.856,1.364
					C41.199,21.452,41.382,21.541,41.521,21.68L41.521,21.68L41.521,21.68z"/>
			</g>
			<g id="Path_241">
				<path fill="#FFFFFF" d="M46.839,35.167c0.343-0.344,0.342-0.9-0.002-1.244c-0.343-0.342-0.898-0.342-1.241,0L33.723,45.796
					c-0.342,0.345-0.341,0.9,0.003,1.243c0.343,0.342,0.898,0.342,1.241,0L46.839,35.167z"/>
			</g>
			<g id="Path_242">
				<path fill="#FFFFFF" d="M51.354,39.681c0.342-0.344,0.342-0.9-0.003-1.243c-0.343-0.343-0.898-0.343-1.241,0L38.237,50.31
					c-0.343,0.344-0.342,0.9,0.002,1.243c0.343,0.342,0.898,0.342,1.241,0L51.354,39.681z"/>
			</g>
			<g id="Path_243">
				<path fill="#FFFFFF" d="M55.867,44.195c0.343-0.344,0.342-0.9-0.002-1.244c-0.344-0.342-0.898-0.342-1.242,0L42.752,54.824
					c-0.343,0.344-0.343,0.9,0.001,1.242c0.344,0.343,0.898,0.343,1.242,0L55.867,44.195z"/>
			</g>
			<g id="Path_244">
				<path fill="#FFFFFF" d="M60.381,48.709c0.343-0.344,0.342-0.9-0.002-1.243s-0.898-0.343-1.242,0L47.266,59.338
					c-0.344,0.344-0.343,0.9,0.002,1.243c0.343,0.343,0.898,0.343,1.241,0L60.381,48.709z"/>
			</g>
			<g id="Path_245">
				<path fill="#FFFFFF" d="M30.275,31.319c0.344,0.342,0.9,0.342,1.242-0.003c0.343-0.343,0.343-0.898,0-1.241L13.565,12.122
					c-0.344-0.344-0.901-0.344-1.244,0s-0.343,0.9,0,1.243L30.275,31.319z"/>
			</g>
			<g>
				<path fill="#FFFFFF" d="M36.588,30.076c-1.742-1.743-4.569-1.743-6.313-0.001c-0.839,0.837-1.31,1.973-1.309,3.157
					c0,1.184,0.471,2.319,1.307,3.156c1.744,1.743,4.569,1.744,6.313,0.001C38.33,34.646,38.33,31.819,36.588,30.076z
					 M35.346,35.146c-0.017,0.016-0.036,0.026-0.052,0.042c-0.112,0.107-0.23,0.207-0.359,0.294
					c-0.075,0.05-0.156,0.085-0.235,0.127c-0.076,0.041-0.149,0.088-0.23,0.121c-0.101,0.042-0.205,0.067-0.309,0.096
					c-0.066,0.019-0.128,0.045-0.196,0.059c-0.352,0.07-0.713,0.07-1.064,0c-0.065-0.013-0.124-0.038-0.188-0.056
					c-0.107-0.029-0.215-0.056-0.318-0.099c-0.073-0.03-0.14-0.074-0.21-0.11c-0.086-0.045-0.174-0.084-0.256-0.14
					c-0.101-0.066-0.189-0.148-0.279-0.228c-0.043-0.038-0.09-0.066-0.131-0.106c-0.039-0.039-0.066-0.085-0.103-0.126
					c-0.081-0.092-0.164-0.183-0.232-0.285c-0.051-0.075-0.086-0.156-0.128-0.236c-0.041-0.076-0.088-0.149-0.122-0.23
					c-0.037-0.09-0.059-0.184-0.086-0.276c-0.022-0.077-0.052-0.151-0.067-0.23c-0.032-0.161-0.047-0.324-0.05-0.487
					c0-0.015-0.004-0.027-0.004-0.042c0-0.019,0.005-0.036,0.006-0.055c0.003-0.158,0.017-0.317,0.048-0.474
					c0.017-0.085,0.048-0.163,0.072-0.245c0.025-0.087,0.046-0.176,0.081-0.262c0.037-0.089,0.088-0.17,0.134-0.255
					c0.039-0.07,0.069-0.144,0.115-0.211c0.089-0.134,0.191-0.256,0.302-0.37c0.013-0.014,0.021-0.029,0.034-0.042
					c0.015-0.015,0.032-0.025,0.048-0.039c0.111-0.107,0.229-0.208,0.358-0.295c0.069-0.046,0.146-0.079,0.22-0.119
					c0.081-0.044,0.158-0.094,0.244-0.13c0.093-0.039,0.192-0.062,0.289-0.09c0.073-0.021,0.142-0.051,0.217-0.066
					c0.176-0.035,0.355-0.054,0.538-0.054c0.718-0.001,1.407,0.284,1.914,0.793c0.129,0.128,0.242,0.269,0.341,0.417
					c0.053,0.079,0.089,0.164,0.132,0.247c0.039,0.074,0.085,0.145,0.116,0.221c0.039,0.094,0.061,0.192,0.088,0.289
					c0.021,0.072,0.05,0.143,0.064,0.217c0.023,0.119,0.028,0.239,0.036,0.36c0.003,0.055,0.016,0.107,0.016,0.162
					c0,0.031-0.008,0.06-0.009,0.091c-0.005,0.146-0.016,0.293-0.045,0.438c-0.017,0.088-0.049,0.17-0.075,0.255
					c-0.025,0.084-0.044,0.169-0.078,0.251c-0.038,0.093-0.091,0.177-0.139,0.264c-0.037,0.067-0.066,0.139-0.11,0.203
					c-0.09,0.135-0.194,0.26-0.307,0.376C35.364,35.121,35.357,35.135,35.346,35.146z"/>
			</g>
		</g>
	</g>
</g>
</svg>
