<?xml version="1.0" encoding="utf-8"?>
<!-- Generator: Adobe Illustrator 16.0.3, SVG Export Plug-In . SVG Version: 6.00 Build 0)  -->
<!DOCTYPE svg PUBLIC "-//W3C//DTD SVG 1.1//EN" "http://www.w3.org/Graphics/SVG/1.1/DTD/svg11.dtd">
<svg version="1.1" xmlns="http://www.w3.org/2000/svg" xmlns:xlink="http://www.w3.org/1999/xlink" x="0px" y="0px" width="80px"
	 height="80px" viewBox="0 0 80 80" enable-background="new 0 0 80 80" xml:space="preserve">
<g id="Livello_5">
	<circle fill="#01A59D" stroke="#FFFFFF" stroke-width="0.4724" stroke-miterlimit="10" cx="40" cy="39.999" r="38"/>
</g>
<g id="Layer_1">
	<g id="Capa_1">
	</g>
	<g id="Livello_1">
	</g>
</g>
<g id="Livello_1_1_">
	<g>
		<path fill-rule="evenodd" clip-rule="evenodd" fill="#FFFFFF" d="M59.16,29.877c0.91-0.004,1.613,0.702,1.607,1.613
			c-0.006,0.884-0.703,1.578-1.588,1.581c-0.908,0.004-1.613-0.703-1.607-1.614C57.578,30.575,58.275,29.881,59.16,29.877z"/>
		<g>
			<path fill-rule="evenodd" clip-rule="evenodd" fill="#FFFFFF" stroke="#01A59D" stroke-width="0.9" stroke-miterlimit="10" d="
				M66.961,26.999c-1.17-2.357-3.012-3.665-5.689-3.67c-3.211-0.007-6.424,0-9.635-0.002c-0.773,0-0.783-0.008-1.023-0.721
				c-0.256-0.756-0.5-1.516-0.758-2.272c-0.707-2.08-2.527-3.392-4.725-3.395c-3.404-0.003-6.811-0.003-10.217,0
				c-2.271,0.002-4.074,1.304-4.787,3.454c-0.27,0.808-0.549,1.612-0.809,2.423c-0.113,0.354-0.322,0.525-0.699,0.514
				c-0.408-0.012-0.816-0.018-1.225,0.002c-0.426,0.021-0.559-0.185-0.551-0.578c0.014-0.621,0.006-1.242,0.004-1.863
				c-0.01-2.231-1.717-3.943-3.941-3.952c-0.727-0.002-1.455-0.007-2.182,0.002c-2.025,0.025-3.754,1.759-3.779,3.79
				c-0.01,0.763-0.01,1.526,0,2.289c0.006,0.349-0.133,0.539-0.457,0.682c-2.057,0.912-3.477,2.343-3.752,4.686
				c0,9.869,0,19.738,0,29.607c0.129,0.404,0.078,0.841,0.23,1.244c0.834,2.193,3.129,3.82,5.486,3.822
				c14.367,0.009,28.732,0.007,43.098,0.002c0.791,0,1.559-0.154,2.268-0.502c1.914-0.939,3.201-2.363,3.445-4.566
				c0-9.834,0-19.668,0-29.5C67.139,28,67.195,27.475,66.961,26.999z M20.297,21.951c-0.002-0.336-0.002-0.673,0.002-1.009
				c0.006-0.434,0.23-0.649,0.662-0.649c0.619,0,1.24,0,1.859,0c0.465,0,0.674,0.241,0.674,0.695
				c-0.004,0.726-0.012,1.453,0.004,2.179c0.008,0.254-0.066,0.338-0.324,0.327c-0.443-0.021-0.887-0.005-1.412-0.005
				c-0.422-0.042-1.098,0.22-1.387-0.102C20.127,23.106,20.305,22.443,20.297,21.951z M64.068,56.658
				c0,1.975-1.072,3.038-3.064,3.038c-7.01,0.002-14.02,0.002-21.029,0.002c-6.977,0-13.951,0-20.924,0
				c-2.07-0.002-3.119-1.043-3.119-3.091c-0.002-8.946-0.002-17.89,0-26.835c0-2.051,1.047-3.09,3.117-3.09
				c3.727,0,7.453,0,11.182,0c0.965,0,1.469-0.362,1.775-1.278c0.426-1.271,0.848-2.543,1.275-3.814
				c0.316-0.939,0.814-1.296,1.82-1.297c3.266-0.002,6.529-0.002,9.797,0c1.02,0,1.5,0.357,1.834,1.347
				c0.422,1.253,0.84,2.508,1.26,3.762c0.311,0.919,0.807,1.28,1.775,1.28c3.764,0.001,7.525,0,11.287,0
				c1.943,0,3.014,1.079,3.014,3.035C64.07,38.698,64.07,47.679,64.068,56.658z"/>
			<path fill-rule="evenodd" clip-rule="evenodd" fill="#FFFFFF" d="M22.418,33.071c-0.549,0-1.1,0.012-1.648-0.002
				c-0.885-0.023-1.549-0.736-1.535-1.63c0.012-0.858,0.684-1.548,1.551-1.559c1.1-0.013,2.201-0.015,3.301,0.001
				c0.863,0.012,1.529,0.711,1.535,1.574c0.008,0.892-0.66,1.593-1.553,1.614C23.52,33.082,22.969,33.071,22.418,33.071z"/>
			<g>
				<path fill-rule="evenodd" clip-rule="evenodd" fill="#FFFFFF" stroke="#01A59D" stroke-miterlimit="10" d="M40.027,27.747
					c-7.963-0.006-14.402,6.415-14.404,14.361C25.619,50.065,32.047,56.502,40,56.502c7.951,0,14.381-6.435,14.377-14.391
					C54.373,34.184,47.951,27.753,40.027,27.747z M39.957,53.307c-6.131-0.033-11.146-5.075-11.139-11.197
					c0.01-6.146,5.084-11.197,11.223-11.167c6.133,0.029,11.15,5.073,11.141,11.197C51.172,48.286,46.092,53.339,39.957,53.307z"/>
				<path fill-rule="evenodd" clip-rule="evenodd" fill="#FFFFFF" stroke="#01A59D" stroke-miterlimit="10" d="M40.055,34.137
					c-4.457-0.008-8.037,3.529-8.041,7.946c-0.006,4.449,3.539,8.024,7.959,8.029c4.441,0.003,8.014-3.548,8.016-7.973
					C47.99,37.721,44.443,34.145,40.055,34.137z M39.99,46.914c-2.602-0.007-4.77-2.172-4.781-4.774
					c-0.01-2.614,2.184-4.813,4.801-4.806c2.604,0.007,4.768,2.169,4.779,4.772C44.803,44.723,42.605,46.923,39.99,46.914z"/>
			</g>
		</g>
	</g>
</g>
</svg>
