<?xml version="1.0" encoding="utf-8"?>
<!-- Generator: Adobe Illustrator 16.0.3, SVG Export Plug-In . SVG Version: 6.00 Build 0)  -->
<!DOCTYPE svg PUBLIC "-//W3C//DTD SVG 1.1//EN" "http://www.w3.org/Graphics/SVG/1.1/DTD/svg11.dtd">
<svg version="1.1" xmlns="http://www.w3.org/2000/svg" xmlns:xlink="http://www.w3.org/1999/xlink" x="0px" y="0px" width="80px"
	 height="80px" viewBox="0 0 80 80" enable-background="new 0 0 80 80" xml:space="preserve">
<g id="Livello_5">
	<circle fill="#655CA8" cx="40" cy="39.999" r="38"/>
</g>
<g id="Layer_1">
	<g id="Capa_1">
	</g>
	<g id="Livello_1">
		<g>
			<path fill-rule="evenodd" clip-rule="evenodd" fill="#FFFFFF" stroke="#655CA8" stroke-width="0.7" stroke-miterlimit="10" d="
				M59.629,53.234c-0.838,0.016-1.676-0.012-2.514,0.01c-0.316,0.008-0.412-0.084-0.406-0.404c0.016-1.221,0.01-2.441,0.004-3.664
				c-0.004-1.049-0.703-1.773-1.705-1.773c-1,0.002-1.699,0.725-1.703,1.775c-0.004,1.35-0.002,2.697-0.002,4.047
				c-1.488,0.057-2.979-0.059-4.467,0.068c-0.797,0.068-1.465,0.771-1.5,1.588c-0.033,0.816,0.566,1.617,1.332,1.738
				c0.334,0.053,0.678,0.068,1.018,0.072c1.205,0.012,2.412,0.012,3.617,0.016c0,1.094-0.002,2.186,0.002,3.279
				c0.004,1.051,0.703,1.773,1.705,1.773c1,0,1.699-0.723,1.705-1.771c0.004-0.98,0.008-1.961-0.006-2.939
				c-0.004-0.279,0.086-0.365,0.365-0.361c0.824,0.018,1.646,0.016,2.471,0.002c0.352-0.006,0.713-0.018,1.055-0.1
				c0.652-0.154,0.984-0.664,1.232-1.24c0-0.256,0-0.512,0-0.768C61.457,53.543,60.658,53.213,59.629,53.234z"/>
			<path fill-rule="evenodd" clip-rule="evenodd" fill="#FFFFFF" stroke="#655CA8" stroke-width="0.7" stroke-miterlimit="10" d="
				M23.287,30.908c0.004,1.049,0.705,1.771,1.709,1.77c1.002-0.001,1.695-0.723,1.699-1.777c0.004-1.235,0.012-2.473-0.006-3.708
				c-0.004-0.325,0.072-0.444,0.422-0.438c1.107,0.022,2.217,0.011,3.324,0.007c0.152,0,0.314,0.039,0.455-0.058
				c0.957-0.017,1.68-0.725,1.689-1.65c0.01-0.948-0.717-1.675-1.689-1.692l0,0l0,0c-0.141-0.097-0.303-0.058-0.455-0.058
				c-1.094-0.004-2.189-0.021-3.281,0.008c-0.391,0.011-0.477-0.115-0.467-0.481c0.025-0.937,0.012-1.875,0.008-2.813
				c-0.004-1.055-0.697-1.776-1.699-1.777c-1.006-0.002-1.705,0.72-1.709,1.769c-0.006,1.095-0.002,2.188-0.002,3.282l0,0
				c-0.863,0.004-1.725,0-2.586,0.013c-0.395,0.007-0.795,0.012-1.184,0.076c-0.715,0.122-1.08,0.652-1.348,1.269
				c0,0.257,0,0.513,0,0.769c0.354,0.87,0.955,1.303,1.939,1.322c1.059,0.02,2.119-0.015,3.178,0.035
				C23.285,28.152,23.283,29.531,23.287,30.908z"/>
			<path fill-rule="evenodd" clip-rule="evenodd" fill="#FFFFFF" stroke="#655CA8" stroke-width="0.7" stroke-miterlimit="10" d="
				M26.695,37.868c-0.008-1.005-0.727-1.723-1.715-1.72c-0.963,0.003-1.686,0.718-1.691,1.698c-0.01,1.463-0.01,2.927,0,4.39
				c0.006,0.98,0.727,1.695,1.691,1.699c0.986,0.002,1.707-0.715,1.715-1.721c0.006-0.725,0.002-1.449,0.002-2.173
				S26.701,38.592,26.695,37.868z"/>
			<path fill-rule="evenodd" clip-rule="evenodd" fill="#FFFFFF" stroke="#655CA8" stroke-width="0.7" stroke-miterlimit="10" d="
				M55.02,36.146c-1.006-0.004-1.707,0.719-1.715,1.766c-0.004,0.71,0,1.42,0,2.13s-0.004,1.421,0,2.132
				c0.008,1.045,0.711,1.766,1.715,1.764c0.98-0.004,1.689-0.727,1.693-1.744c0.006-1.435,0.006-2.87,0-4.304
				C56.709,36.871,56,36.149,55.02,36.146z"/>
			<path fill-rule="evenodd" clip-rule="evenodd" fill="#FFFFFF" stroke="#655CA8" stroke-width="0.7" stroke-miterlimit="10" d="
				M30.998,53.287c-0.918-0.039-1.844-0.02-2.672-0.518l0,0l0,0c-0.734-0.527-1.291-1.184-1.516-2.08
				c-0.141-0.557-0.1-1.127-0.119-1.691c-0.029-0.859-0.738-1.563-1.58-1.59c-0.955-0.033-1.744,0.582-1.813,1.477
				c-0.135,1.805,0.203,3.502,1.307,4.982c0.924,1.24,2.102,2.127,3.625,2.506c0.896,0.352,1.836,0.285,2.766,0.266
				c0.965-0.02,1.67-0.748,1.67-1.672C32.666,54.041,31.961,53.33,30.998,53.287z"/>
			<path fill-rule="evenodd" clip-rule="evenodd" fill="#FFFFFF" stroke="#655CA8" stroke-width="0.7" stroke-miterlimit="10" d="
				M48.957,26.712c0.926,0.062,1.881-0.012,2.719,0.517l0,0c0.707,0.527,1.273,1.157,1.504,2.041
				c0.146,0.558,0.119,1.123,0.125,1.689c0.012,1.005,0.729,1.723,1.713,1.721c0.961-0.003,1.688-0.718,1.693-1.695
				c0.004-0.594,0.004-1.185-0.068-1.78c-0.32-2.626-2.404-4.998-4.955-5.6c-0.887-0.313-1.803-0.292-2.721-0.249
				c-0.934,0.042-1.629,0.761-1.631,1.671C47.334,25.938,48.029,26.651,48.957,26.712z"/>
			<path fill-rule="evenodd" clip-rule="evenodd" fill="#FFFFFF" stroke="#655CA8" stroke-width="0.4" stroke-miterlimit="10" d="
				M44.336,24.923c0,0.879-0.713,1.592-1.592,1.592h-4.896c-0.879,0-1.592-0.713-1.592-1.592l0,0c0-0.879,0.713-1.592,1.592-1.592
				h4.896C43.623,23.332,44.336,24.044,44.336,24.923L44.336,24.923z"/>
			<path fill-rule="evenodd" clip-rule="evenodd" fill="#FFFFFF" stroke="#655CA8" stroke-width="0.4" stroke-miterlimit="10" d="
				M44.336,54.941c0,0.879-0.713,1.592-1.592,1.592h-4.896c-0.879,0-1.592-0.713-1.592-1.592l0,0c0-0.879,0.713-1.592,1.592-1.592
				h4.896C43.623,53.35,44.336,54.063,44.336,54.941L44.336,54.941z"/>
		</g>
	</g>
</g>
<g id="Livello_1_1_">
</g>
</svg>
