<?xml version="1.0" encoding="utf-8"?>
<!-- Generator: Adobe Illustrator 16.0.3, SVG Export Plug-In . SVG Version: 6.00 Build 0)  -->
<!DOCTYPE svg PUBLIC "-//W3C//DTD SVG 1.1//EN" "http://www.w3.org/Graphics/SVG/1.1/DTD/svg11.dtd">
<svg version="1.1" xmlns="http://www.w3.org/2000/svg" xmlns:xlink="http://www.w3.org/1999/xlink" x="0px" y="0px" width="80px"
	 height="80px" viewBox="0 0 80 80" enable-background="new 0 0 80 80" xml:space="preserve">
<g id="Livello_5">
	<circle fill="#655CA8" cx="40" cy="39.999" r="38"/>
</g>
<g id="Layer_1">
	<g id="Capa_1">
	</g>
	<g id="Livello_1">
	</g>
</g>
<g id="Livello_1_1_">
	<g>
		<path fill-rule="evenodd" clip-rule="evenodd" fill="#FFFFFF" stroke="#655CA8" stroke-width="0.7" stroke-miterlimit="10" d="
			M25.422,61.324c0.104-0.145,0.256-0.08,0.385-0.08c9.434-0.004,18.869-0.004,28.305,0c0.127,0,0.279-0.063,0.383,0.08
			C44.803,61.324,35.113,61.324,25.422,61.324z"/>
		<path fill-rule="evenodd" clip-rule="evenodd" fill="#FFFFFF" stroke="#655CA8" stroke-width="0.7" stroke-miterlimit="10" d="
			M29.588,18.676c-0.223,0.121-0.445,0.138-0.668,0C29.143,18.676,29.365,18.676,29.588,18.676z"/>
		<path fill-rule="evenodd" clip-rule="evenodd" fill="#FFFFFF" stroke="#655CA8" stroke-width="0.7" stroke-miterlimit="10" d="
			M50.996,18.676c-0.223,0.128-0.445,0.129-0.666,0C50.551,18.676,50.773,18.676,50.996,18.676z"/>
		<path fill-rule="evenodd" clip-rule="evenodd" fill="#FFFFFF" stroke="#655CA8" stroke-width="0.7" stroke-miterlimit="10" d="
			M61.162,29.614c-0.566-1.574-2.193-2.721-3.879-2.727c-0.359-0.001-0.721,0.002-1.082-0.001c-0.471-0.004-0.484-0.025-0.289-0.466
			c1.156-2.634-0.006-5.855-2.566-7.167c-0.719-0.368-1.475-0.535-2.266-0.578c-0.029,0-0.057,0-0.084,0
			c-0.223,0.069-0.445,0.069-0.666,0c-0.057,0-0.111,0-0.168,0c-1.211,0.053-2.25,0.527-3.15,1.314
			c-0.938,0.82-1.859,1.659-2.775,2.505c-0.674,0.624-0.66,0.639-1.297,0.006c-1.23-1.227-3.16-1.543-4.736-0.804
			c-0.594,0.278-1.07,0.689-1.498,1.167c-0.195,0.219-0.363,0.219-0.551,0.011c-0.373-0.412-0.82-0.745-1.223-1.126
			c-0.635-0.6-1.281-1.187-1.943-1.753c-0.928-0.792-1.986-1.296-3.234-1.32c-0.055,0-0.111,0-0.166,0
			c-0.223,0.069-0.445,0.069-0.668,0c-0.025,0-0.055,0-0.082,0c-0.35,0.081-0.711,0.042-1.061,0.134
			c-3.271,0.856-5.051,4.532-3.686,7.621c0.191,0.432,0.178,0.445-0.301,0.458c-0.58,0.016-1.164-0.044-1.742,0.048
			c-1.4,0.223-3.18,1.54-3.373,3.484c0,2.222,0,4.442,0,6.664c0.195,0.796,0.607,1.118,1.445,1.132
			c0.111,0.002,0.223,0.001,0.334,0.002c0.877,0.005,0.834-0.069,0.834,0.839c0.002,5.913,0,11.827,0.002,17.739
			c0,0.889,0.148,1.75,0.635,2.51c0.74,1.152,1.738,1.926,3.164,2.018c0.111,0,0.223,0,0.332,0c0.145-0.08,0.299-0.041,0.449-0.041
			c9.393-0.002,18.783-0.002,28.174,0c0.15,0,0.307-0.039,0.449,0.041c0.084,0,0.168,0,0.25,0c0.613-0.084,1.232-0.115,1.783-0.471
			c1.467-0.943,2.182-2.285,2.182-4.016c0.002-5.926,0-11.854,0.002-17.78c0-0.152,0.004-0.306,0.002-0.458
			c-0.004-0.258,0.111-0.382,0.375-0.38s0.527,0.002,0.791-0.003c0.838-0.013,1.25-0.336,1.445-1.132c0-2.166,0-4.332,0-6.497
			C61.248,30.267,61.277,29.931,61.162,29.614z M35.408,58.504c-3.207-0.016-6.414-0.008-9.621-0.01
			c-0.988,0-1.535-0.549-1.535-1.545c-0.002-6.137,0.002-12.271-0.008-18.407c0-0.335,0.064-0.441,0.422-0.439
			c3.582,0.014,7.164,0.014,10.746,0c0.355-0.001,0.426,0.104,0.424,0.44c-0.014,3.248-0.008,6.496-0.008,9.746
			c0,3.262-0.006,6.523,0.01,9.785C35.838,58.422,35.756,58.506,35.408,58.504z M35.375,35.332c-2.248-0.015-4.494-0.008-6.74-0.008
			c-2.262,0-4.523-0.007-6.783,0.009c-0.322,0.002-0.391-0.092-0.385-0.396c0.016-1.206,0.002-2.413,0.008-3.62
			c0.006-1.021,0.547-1.551,1.574-1.552c4.121-0.001,8.24,0.005,12.359-0.009c0.35-0.001,0.432,0.091,0.43,0.434
			c-0.02,1.566-0.025,3.135,0.002,4.702C35.848,35.284,35.717,35.334,35.375,35.332z M28.967,26.93
			c-1.15-0.059-2.059-0.929-2.344-2.089c-0.262-1.067,0.186-2.219,1.105-2.843c0.975-0.66,2.23-0.726,3.102,0.02
			c1.854,1.583,3.643,3.244,5.457,4.874C33.816,26.948,31.391,27.056,28.967,26.93z M38.697,25.192
			c0.051-0.365,0.322-0.633,0.65-0.817c0.199-0.111,0.416-0.145,0.611-0.152c0.404-0.004,0.734,0.118,1.004,0.385
			c0.443,0.437,0.441,0.607-0.016,1.018c-0.299,0.268-0.566,0.684-0.908,0.76c-0.355,0.079-0.586-0.423-0.875-0.664
			C38.982,25.569,38.66,25.45,38.697,25.192z M38.932,29.759c0.719,0.02,1.439,0.017,2.16,0.001c0.248-0.006,0.297,0.09,0.295,0.313
			c-0.008,1.647-0.008,3.297,0,4.944c0.002,0.225-0.047,0.318-0.297,0.313c-0.734-0.016-1.469-0.014-2.201-0.001
			c-0.23,0.005-0.277-0.085-0.275-0.292c0.008-0.844,0.004-1.689,0.004-2.534c0-0.804,0.008-1.606-0.006-2.41
			C38.607,29.85,38.66,29.752,38.932,29.759z M40.943,58.504c-0.648-0.035-1.303-0.029-1.953,0c-0.33,0.016-0.381-0.102-0.381-0.398
			c0.012-3.273,0.008-6.547,0.008-9.82c0-3.246,0.004-6.492-0.008-9.737c-0.002-0.331,0.061-0.463,0.424-0.445
			c0.652,0.031,1.307,0.032,1.957-0.001c0.357-0.018,0.404,0.125,0.398,0.429c-0.016,0.972-0.006,1.942-0.006,2.913
			c0,5.535-0.004,11.07,0.01,16.604C41.393,58.402,41.324,58.525,40.943,58.504z M45.799,25.006
			c1.039-0.941,2.064-1.896,3.123-2.815c1.596-1.386,3.994-0.575,4.457,1.488c0.342,1.522-0.76,3.087-2.309,3.255
			c-0.953,0.104-1.912,0.035-2.869,0.042c-1.482,0.011-2.965,0.003-4.572,0.003C44.408,26.27,45.104,25.636,45.799,25.006z
			 M55.748,57.016c0,0.906-0.572,1.479-1.477,1.479c-3.25,0.002-6.498-0.004-9.746,0.008c-0.297,0.002-0.361-0.082-0.359-0.369
			c0.01-3.275,0.006-6.551,0.006-9.828c0-3.262,0.004-6.523-0.008-9.786c-0.002-0.321,0.072-0.417,0.408-0.415
			c3.594,0.013,7.189,0.012,10.785,0.002c0.295-0.002,0.4,0.047,0.398,0.377C55.746,44.66,55.75,50.838,55.748,57.016z
			 M58.158,35.331c-2.273-0.012-4.549-0.007-6.824-0.007c-2.26,0-4.521-0.006-6.781,0.008c-0.314,0.002-0.393-0.077-0.389-0.389
			c0.018-1.595,0.02-3.19-0.002-4.785c-0.004-0.347,0.111-0.399,0.42-0.399c4.119,0.01,8.238,0.006,12.357,0.007
			c1.049,0.001,1.584,0.533,1.588,1.584c0.002,1.206-0.01,2.413,0.006,3.62C58.539,35.271,58.439,35.332,58.158,35.331z"/>
	</g>
</g>
</svg>
