<?xml version="1.0" encoding="utf-8"?>
<!-- Generator: Adobe Illustrator 16.0.3, SVG Export Plug-In . SVG Version: 6.00 Build 0)  -->
<!DOCTYPE svg PUBLIC "-//W3C//DTD SVG 1.1//EN" "http://www.w3.org/Graphics/SVG/1.1/DTD/svg11.dtd">
<svg version="1.1" xmlns="http://www.w3.org/2000/svg" xmlns:xlink="http://www.w3.org/1999/xlink" x="0px" y="0px" width="80px"
	 height="80px" viewBox="0 0 80 80" enable-background="new 0 0 80 80" xml:space="preserve">
<g id="Livello_5">
	<circle fill="#3170B6" stroke="#FFFFFF" stroke-width="0.8085" stroke-miterlimit="10" cx="40" cy="39.999" r="38"/>
</g>
<g id="Layer_1">
	<g id="Capa_1">
	</g>
	<g id="Livello_1">
		<g>
			<path fill-rule="evenodd" clip-rule="evenodd" fill="#FFFFFF" stroke="#3170B6" stroke-width="0.6" stroke-miterlimit="10" d="
				M59.566,28.46c-2.65-7.391-7.826-12.046-15.568-13.717c-0.807-0.174-1.629-0.264-2.445-0.395c-1.07,0-2.137,0-3.207,0
				c-0.42,0.191-0.881,0.125-1.318,0.188c-2.855,0.404-5.561,1.271-7.957,2.866c-7.031,4.68-10.359,11.252-9.758,19.709
				c0.277,3.932,1.758,7.398,4.342,10.406c4.873,5.67,9.705,11.375,14.543,17.072c0.385,0.451,0.785,0.855,1.352,1.063
				c0.266,0,0.533,0,0.801,0c0.457-0.18,0.836-0.455,1.156-0.832c4.789-5.631,9.58-11.26,14.377-16.887
				c1.158-1.359,2.271-2.758,3.006-4.398C61.092,38.604,61.383,33.53,59.566,28.46z M55.689,41.857
				c-0.512,1.17-1.25,2.195-2.072,3.164c-4.455,5.236-8.918,10.465-13.365,15.707c-0.25,0.297-0.346,0.311-0.604,0.006
				c-4.436-5.23-8.875-10.461-13.338-15.668c-2.045-2.385-3.115-5.147-3.42-8.247c-0.057-0.566-0.082-1.131-0.084-1.698
				c-0.012-7.929,5.5-14.921,13.178-16.722c9.398-2.205,18.715,3.692,20.711,13.1C57.451,35.061,57.15,38.514,55.689,41.857z"/>
			<path fill-rule="evenodd" clip-rule="evenodd" fill="#FFFFFF" stroke="#3170B6" stroke-width="0.6" stroke-miterlimit="10" d="
				M39.926,24.978c-5.529,0.017-10.041,4.554-10.02,10.073C29.928,40.599,34.428,45.1,39.949,45.1
				C45.492,45.098,50.047,40.518,49.992,35C49.936,29.426,45.451,24.961,39.926,24.978z M39.938,41.492
				c-3.559-0.014-6.428-2.911-6.416-6.479c0.01-3.542,2.879-6.418,6.414-6.43c3.543-0.013,6.443,2.89,6.445,6.453
				C46.381,38.598,43.482,41.504,39.938,41.492z"/>
		</g>
	</g>
</g>
</svg>
