<?xml version="1.0" encoding="utf-8"?>
<!-- Generator: Adobe Illustrator 16.0.3, SVG Export Plug-In . SVG Version: 6.00 Build 0)  -->
<!DOCTYPE svg PUBLIC "-//W3C//DTD SVG 1.1//EN" "http://www.w3.org/Graphics/SVG/1.1/DTD/svg11.dtd">
<svg version="1.1" xmlns="http://www.w3.org/2000/svg" xmlns:xlink="http://www.w3.org/1999/xlink" x="0px" y="0px" width="80px"
	 height="80px" viewBox="0 0 80 80" enable-background="new 0 0 80 80" xml:space="preserve">
<g id="Livello_1">
</g>
<g id="Livello_5">
	<circle fill="#3170B6" stroke="#FFFFFF" stroke-width="0.8085" stroke-miterlimit="10" cx="40" cy="39.999" r="38"/>
</g>
<g id="Layer_1">
	<g id="Capa_1">
	</g>
</g>
<g id="Modalità_Isolamento">
	<g>
		<g>
			<path fill-rule="evenodd" clip-rule="evenodd" fill="#FFFFFF" d="M16.748,53.55c0.031,0.188,0.062,0.373-0.089,0.531
				c0-0.172,0-0.344,0-0.518C16.688,53.556,16.719,53.552,16.748,53.55z"/>
			<path fill-rule="evenodd" clip-rule="evenodd" fill="#FFFFFF" d="M16.748,55.843c-0.029-0.002-0.06-0.006-0.089-0.014
				c0-0.17,0-0.344,0-0.516C16.81,55.47,16.78,55.657,16.748,55.843z"/>
			<path fill-rule="evenodd" clip-rule="evenodd" fill="#FFFFFF" d="M68.875,38.549c-2.709-2.696-5.408-5.4-8.109-8.102
				c-0.468-0.468-0.478-0.474-0.151-1.024c0.813-1.37,1.172-2.848,1.026-4.432c-0.493-5.36-6.381-8.365-11.017-5.629
				c-0.593,0.35-0.594,0.351-1.069-0.126c-2.701-2.701-5.405-5.401-8.102-8.108c-0.236-0.238-0.483-0.421-0.817-0.474
				c-0.206,0-0.412,0-0.617,0c-0.379,0.256-0.596,0.622-0.784,1.034C34.518,21.961,29.79,32.229,25.07,42.499
				c-0.124,0.268-0.282,0.498-0.493,0.707c-1.773,1.766-3.54,3.537-5.31,5.305c-1.402,1.4-2.276,3.061-2.52,5.039
				c-0.097,0.164,0.034,0.369-0.089,0.531c0,0.408,0,0.822,0,1.232c0.108,0.166,0.028,0.352,0.054,0.527
				c0.006,0.168-0.004,0.338,0.02,0.51c0.316,2.186,1.48,3.873,3.146,5.236c1.242,1.018,2.681,1.615,4.293,1.754
				c0.687,0,1.372,0,2.059,0c0.025-0.025,0.054-0.045,0.087-0.047c2.032-0.055,3.68-0.957,5.096-2.342
				c1.115-1.086,2.205-2.201,3.309-3.303c0.46-0.459,0.464-0.459,0.931,0.01c1.696,1.693,3.395,3.387,5.083,5.088
				c0.271,0.271,0.551,0.504,0.931,0.594c0.206,0,0.411,0,0.618,0c0.379-0.088,0.665-0.314,0.933-0.59
				c0.719-0.738,1.455-1.457,2.18-2.188c0.385-0.393,0.803-0.75,1.143-1.182c0.435-0.557,0.43-1.086,0.008-1.646
				c-0.135-0.182-0.296-0.336-0.454-0.492c-1.284-1.285-2.57-2.57-3.852-3.855c-0.101-0.102-0.26-0.17-0.259-0.367
				c2.084-0.967,4.167-1.928,6.254-2.887c2.773-1.27,5.541-2.555,8.317-3.818c1.935-0.879,3.864-1.766,5.791-2.664
				c2.082-0.969,4.188-1.885,6.252-2.893c0.347-0.169,0.666-0.358,0.751-0.777c0-0.204,0-0.411,0-0.616
				C69.294,39.031,69.111,38.784,68.875,38.549z M51.909,21.13c0.778-0.398,1.591-0.616,2.466-0.604
				c3.874,0.026,6.335,4.171,4.496,7.563c-0.165,0.303-0.252,0.4-0.55,0.099c-2.155-2.181-4.324-4.35-6.507-6.506
				C51.521,21.389,51.588,21.294,51.909,21.13z M31.301,57.993c0,0,0,0-0.504,0.527c-1.037,1.09-2.134,2.064-3.632,2.498
				c-2.843,0.822-5.881-0.322-7.456-2.848c-1.555-2.494-1.29-5.764,0.728-7.893c1.649-1.742,3.384-3.404,5.069-5.107
				c0.195-0.195,0.304-0.172,0.485,0.01c2.939,2.949,5.883,5.895,8.834,8.834c0.193,0.195,0.185,0.301-0.002,0.484
				c-0.682,0.676-1.347,1.367-2.046,2.078 M43.979,58.257c0.095,0.096,0.182,0.197,0.278,0.303c-0.074,0.078-0.131,0.143-0.19,0.201
				c-0.618,0.619-1.246,1.229-1.85,1.861c-0.195,0.201-0.304,0.18-0.49-0.008c-1.604-1.619-3.217-3.232-4.835-4.838
				c-0.173-0.17-0.187-0.264-0.013-0.447c0.3-0.314,0.699-0.43,1.067-0.594c0.573-0.254,1.17-0.813,1.712-0.684
				c0.515,0.121,0.903,0.787,1.339,1.223C41.995,56.267,42.987,57.263,43.979,58.257z M39.511,16c0.404-0.811,0.77-1.64,1.137-2.436
				c8.606,8.604,17.199,17.195,25.796,25.789c-2.485,1.145-5.014,2.309-7.54,3.473c-7.235,3.328-14.469,6.654-21.7,9.994
				c-0.345,0.16-0.545,0.143-0.827-0.143c-3.018-3.045-6.052-6.072-9.09-9.098c-0.222-0.223-0.287-0.383-0.143-0.695
				c3.725-8.066,7.435-16.142,11.148-24.216c0.029-0.062,0.067-0.118,0.106-0.186"/>
			<path fill-rule="evenodd" clip-rule="evenodd" fill="#FFFFFF" d="M40.94,30.169c0.009-0.594,0.372-1.017,0.862-1.091
				c0.531-0.08,0.997,0.212,1.163,0.782c0.327,1.114,0.631,2.235,0.941,3.354c0.95,3.422,1.902,6.842,2.85,10.267
				c0.058,0.213,0.117,0.438,0.106,0.65c-0.022,0.488-0.401,0.861-0.881,0.924c-0.523,0.068-0.968-0.209-1.125-0.756
				c-0.476-1.66-0.933-3.324-1.395-4.983c-0.81-2.911-1.618-5.824-2.426-8.737C40.992,30.416,40.96,30.249,40.94,30.169z"/>
			<path fill-rule="evenodd" clip-rule="evenodd" fill="#FFFFFF" d="M50.861,32.695c-2.023-0.013-3.704,1.664-3.699,3.69
				c0.007,2.009,1.652,3.663,3.662,3.677c2.021,0.014,3.7-1.66,3.699-3.689C54.519,34.364,52.87,32.709,50.861,32.695z
				 M50.847,38.006c-0.871,0.004-1.601-0.714-1.621-1.597c-0.02-0.896,0.719-1.653,1.613-1.655c0.87-0.002,1.605,0.721,1.623,1.596
				C52.48,37.241,51.737,38.001,50.847,38.006z"/>
			<path fill-rule="evenodd" clip-rule="evenodd" fill="#FFFFFF" d="M37.108,32.04c-2.061-0.013-3.694,1.605-3.699,3.66
				c-0.004,2.031,1.611,3.662,3.635,3.674c2.055,0.014,3.701-1.614,3.703-3.662C40.749,33.68,39.137,32.053,37.108,32.04z
				 M37.03,37.316c-0.889-0.019-1.571-0.729-1.563-1.631c0.009-0.917,0.728-1.606,1.655-1.587c0.89,0.019,1.574,0.73,1.566,1.628
				C38.681,36.636,37.95,37.336,37.03,37.316z"/>
		</g>
	</g>
</g>
</svg>
