<?xml version="1.0" encoding="utf-8"?>
<!-- Generator: Adobe Illustrator 16.0.3, SVG Export Plug-In . SVG Version: 6.00 Build 0)  -->
<!DOCTYPE svg PUBLIC "-//W3C//DTD SVG 1.1//EN" "http://www.w3.org/Graphics/SVG/1.1/DTD/svg11.dtd">
<svg version="1.1" xmlns="http://www.w3.org/2000/svg" xmlns:xlink="http://www.w3.org/1999/xlink" x="0px" y="0px" width="80px"
	 height="80px" viewBox="0 0 80 80" enable-background="new 0 0 80 80" xml:space="preserve">
<g id="Livello_5">
	<circle fill="#01A59D" stroke="#FFFFFF" stroke-width="0.4724" stroke-miterlimit="10" cx="40" cy="39.999" r="38"/>
</g>
<g id="Layer_1">
	<g id="Capa_1">
	</g>
	<g id="Livello_1">
	</g>
</g>
<g id="Livello_1_1_">
	<g>
		<path fill-rule="evenodd" clip-rule="evenodd" fill="#FFFFFF" stroke="#01A59D" stroke-width="0.4724" stroke-miterlimit="10" d="
			M26.524,63.128c-3.714,0-7.428,0-11.141,0c-1.127,0-1.49-0.362-1.49-1.499c-0.002-7.339-0.002-14.678,0-22.014
			c0-1.213,0.291-1.496,1.527-1.496c7.383-0.002,14.765-0.002,22.147,0c1.197,0,1.524,0.327,1.525,1.519
			c0,7.337,0.001,14.675-0.001,22.016c0,1.158-0.322,1.474-1.494,1.474C33.906,63.128,30.215,63.128,26.524,63.128z M26.527,61.035
			c3.338,0,6.674-0.009,10.011,0.01c0.452,0.004,0.612-0.099,0.586-0.571c-0.04-0.767-0.011-1.537-0.011-2.307
			c0-3.842,0.002-7.684-0.003-11.525c0-0.283,0.127-0.624-0.404-0.617c-1.713,0.022-3.425,0.016-5.137,0.003
			c-0.293-0.003-0.38,0.103-0.373,0.381c0.015,0.636-0.012,1.273,0.009,1.91c0.018,0.501-0.095,0.946-0.576,1.151
			c-0.477,0.202-0.923,0.105-1.325-0.272c-0.768-0.722-1.579-1.395-2.348-2.117c-0.277-0.261-0.441-0.294-0.743-0.017
			c-0.823,0.757-1.693,1.462-2.532,2.204c-0.366,0.322-0.76,0.441-1.205,0.233c-0.442-0.206-0.631-0.58-0.625-1.065
			c0.007-0.636-0.026-1.275,0.011-1.91c0.024-0.424-0.134-0.508-0.524-0.502c-1.581,0.021-3.162,0.034-4.743-0.004
			c-0.538-0.013-0.647,0.159-0.645,0.663c0.019,4.566,0.021,9.134-0.004,13.7c-0.003,0.572,0.177,0.669,0.701,0.665
			C19.939,61.023,23.233,61.035,26.527,61.035z M29.11,46.282c0-2.012-0.007-3.877,0.007-5.743c0.003-0.341-0.097-0.451-0.444-0.446
			c-1.429,0.018-2.856,0.021-4.284-0.002c-0.416-0.008-0.452,0.174-0.448,0.508c0.014,1.404,0.004,2.81,0.004,4.215
			c0,0.424,0,0.848,0,1.373c0.608-0.504,1.104-0.928,1.615-1.337c0.635-0.507,1.214-0.506,1.842,0.004
			C27.942,45.293,28.47,45.745,29.11,46.282z M37.251,43.816c0,0.11-0.09,0.2-0.2,0.2h-5.6c-0.11,0-0.2-0.09-0.2-0.2v-3.381
			c0-0.11,0.09-0.2,0.2-0.2h5.6c0.11,0,0.2,0.09,0.2,0.2V43.816z M21.782,43.504c0,0.11-0.09,0.2-0.2,0.2h-5.6
			c-0.11,0-0.2-0.09-0.2-0.2v-3.381c0-0.11,0.09-0.2,0.2-0.2h5.6c0.11,0,0.2,0.089,0.2,0.2V43.504z"/>
		<path fill-rule="evenodd" clip-rule="evenodd" fill="#FFFFFF" stroke="#01A59D" stroke-width="0.4724" stroke-miterlimit="10" d="
			M53.539,63.128c-3.714,0-7.428,0-11.141,0c-1.127,0-1.49-0.362-1.49-1.499c-0.002-7.339-0.002-14.678,0-22.014
			c0-1.213,0.291-1.496,1.527-1.496c7.383-0.002,14.765-0.002,22.147,0c1.197,0,1.524,0.327,1.525,1.519
			c0,7.337,0.001,14.675-0.001,22.016c0,1.158-0.322,1.474-1.494,1.474C60.921,63.128,57.229,63.128,53.539,63.128z M53.542,61.035
			c3.338,0,6.674-0.009,10.011,0.01c0.452,0.004,0.612-0.099,0.586-0.571c-0.04-0.767-0.011-1.537-0.011-2.307
			c0-3.842,0.002-7.684-0.003-11.525c0-0.283,0.127-0.624-0.404-0.617c-1.713,0.022-3.425,0.016-5.137,0.003
			c-0.293-0.003-0.38,0.103-0.373,0.381c0.015,0.636-0.012,1.273,0.009,1.91c0.018,0.501-0.095,0.946-0.576,1.151
			c-0.477,0.202-0.923,0.105-1.325-0.272c-0.768-0.722-1.579-1.395-2.348-2.117c-0.277-0.261-0.441-0.294-0.743-0.017
			c-0.823,0.757-1.693,1.462-2.532,2.204c-0.366,0.322-0.76,0.441-1.205,0.233c-0.442-0.206-0.631-0.58-0.625-1.065
			c0.007-0.636-0.026-1.275,0.011-1.91c0.024-0.424-0.134-0.508-0.524-0.502c-1.581,0.021-3.162,0.034-4.743-0.004
			c-0.538-0.013-0.647,0.159-0.645,0.663c0.019,4.566,0.021,9.134-0.004,13.7c-0.003,0.572,0.177,0.669,0.701,0.665
			C46.954,61.023,50.248,61.035,53.542,61.035z M56.125,46.282c0-2.012-0.007-3.877,0.007-5.743
			c0.003-0.341-0.097-0.451-0.444-0.446c-1.429,0.018-2.856,0.021-4.284-0.002c-0.416-0.008-0.452,0.174-0.448,0.508
			c0.014,1.404,0.004,2.81,0.004,4.215c0,0.424,0,0.848,0,1.373c0.608-0.504,1.104-0.928,1.615-1.337
			c0.635-0.507,1.214-0.506,1.842,0.004C54.957,45.293,55.484,45.745,56.125,46.282z M64.266,43.816c0,0.11-0.09,0.2-0.2,0.2h-5.6
			c-0.11,0-0.2-0.09-0.2-0.2v-3.381c0-0.11,0.09-0.2,0.2-0.2h5.6c0.11,0,0.2,0.09,0.2,0.2V43.816z M48.797,43.504
			c0,0.11-0.09,0.2-0.2,0.2h-5.6c-0.11,0-0.2-0.09-0.2-0.2v-3.381c0-0.11,0.09-0.2,0.2-0.2h5.6c0.11,0,0.2,0.089,0.2,0.2V43.504z"/>
		<path fill-rule="evenodd" clip-rule="evenodd" fill="#FFFFFF" stroke="#01A59D" stroke-width="0.4724" stroke-miterlimit="10" d="
			M39.862,35.878c-3.714,0-7.428,0-11.141,0c-1.127,0-1.49-0.362-1.49-1.499c-0.002-7.339-0.002-14.678,0-22.014
			c0-1.214,0.291-1.497,1.527-1.497c7.383-0.001,14.765-0.001,22.147,0c1.197,0,1.524,0.327,1.525,1.52
			c0,7.337,0.001,14.675-0.001,22.016c0,1.158-0.322,1.474-1.494,1.474C47.244,35.878,43.553,35.878,39.862,35.878z M39.865,33.786
			c3.338,0,6.674-0.009,10.011,0.01c0.452,0.004,0.612-0.099,0.586-0.571c-0.04-0.767-0.011-1.537-0.011-2.307
			c0-3.842,0.002-7.684-0.003-11.525c0-0.283,0.127-0.624-0.404-0.617c-1.713,0.022-3.425,0.016-5.137,0.003
			c-0.293-0.003-0.38,0.103-0.373,0.381c0.015,0.636-0.012,1.273,0.009,1.91c0.018,0.501-0.095,0.946-0.576,1.151
			c-0.477,0.202-0.923,0.105-1.325-0.272c-0.768-0.722-1.579-1.395-2.348-2.117c-0.277-0.261-0.441-0.294-0.743-0.017
			c-0.823,0.757-1.693,1.462-2.532,2.204c-0.366,0.322-0.76,0.441-1.205,0.233c-0.442-0.206-0.631-0.58-0.625-1.065
			c0.007-0.636-0.026-1.275,0.011-1.91c0.024-0.424-0.134-0.508-0.524-0.502c-1.581,0.021-3.162,0.034-4.743-0.004
			c-0.538-0.013-0.647,0.159-0.645,0.663c0.019,4.566,0.021,9.134-0.004,13.7c-0.003,0.572,0.177,0.669,0.701,0.665
			C33.277,33.774,36.571,33.786,39.865,33.786z M42.448,19.033c0-2.012-0.007-3.876,0.007-5.743c0.003-0.34-0.097-0.451-0.444-0.446
			c-1.429,0.018-2.856,0.021-4.284-0.002c-0.416-0.008-0.452,0.174-0.448,0.507c0.014,1.405,0.004,2.81,0.004,4.215
			c0,0.424,0,0.848,0,1.373c0.608-0.504,1.104-0.928,1.615-1.337c0.635-0.507,1.214-0.506,1.842,0.004
			C41.28,18.043,41.808,18.496,42.448,19.033z M50.589,16.567c0,0.11-0.09,0.2-0.2,0.2h-5.6c-0.11,0-0.2-0.09-0.2-0.2v-3.381
			c0-0.111,0.09-0.2,0.2-0.2h5.6c0.11,0,0.2,0.089,0.2,0.2V16.567z M35.12,16.254c0,0.11-0.09,0.2-0.2,0.2h-5.6
			c-0.11,0-0.2-0.09-0.2-0.2v-3.381c0-0.111,0.09-0.2,0.2-0.2h5.6c0.11,0,0.2,0.089,0.2,0.2V16.254z"/>
	</g>
</g>
</svg>
